# Blender 3.4.0
# www.blender.org
o Sphere
v 0.000000 -0.809017 -0.587785
v 0.000000 -0.587785 -0.809017
v 0.000000 -0.309017 -0.951057
v 0.000000 0.000000 -1.000000
v 0.000000 0.587785 -0.809017
v 0.000000 0.809017 -0.587785
v -0.095492 -0.951057 -0.293893
v -0.181636 -0.809017 -0.559017
v -0.250000 -0.587785 -0.769421
v -0.293893 -0.309017 -0.904509
v -0.309017 0.000000 -0.951057
v -0.293893 0.309017 -0.904509
v -0.250000 0.587785 -0.769421
v -0.181636 0.809017 -0.559017
v -0.095492 0.951057 -0.293893
v -0.181636 -0.951057 -0.250000
v -0.345492 -0.809017 -0.475528
v -0.475528 -0.587785 -0.654509
v -0.559017 -0.309017 -0.769421
v -0.587785 0.000000 -0.809017
v -0.559017 0.309017 -0.769421
v -0.475528 0.587785 -0.654509
v -0.345492 0.809017 -0.475528
v -0.181636 0.951057 -0.250000
v -0.250000 -0.951057 -0.181636
v -0.475528 -0.809017 -0.345492
v -0.654509 -0.587785 -0.475528
v -0.769421 -0.309017 -0.559017
v -0.809017 0.000000 -0.587785
v -0.769421 0.309017 -0.559017
v -0.654509 0.587785 -0.475528
v -0.475528 0.809017 -0.345492
v -0.250000 0.951057 -0.181636
v -0.293893 -0.951057 -0.095492
v -0.559017 -0.809017 -0.181636
v -0.769421 -0.587785 -0.250000
v -0.904509 -0.309017 -0.293893
v -0.951057 0.000000 -0.309017
v -0.904509 0.309017 -0.293893
v -0.769421 0.587785 -0.250000
v -0.559017 0.809017 -0.181636
v -0.293893 0.951057 -0.095492
v -0.309017 -0.951057 0.000000
v -0.587785 -0.809017 0.000000
v -0.809017 -0.587785 -0.000000
v -0.951057 -0.309017 0.000000
v -1.000000 0.000000 0.000000
v -0.951057 0.309017 0.000000
v -0.809017 0.587785 -0.000000
v -0.587785 0.809017 0.000000
v -0.309017 0.951057 0.000000
v -0.293893 -0.951057 0.095492
v -0.559017 -0.809017 0.181636
v -0.769421 -0.587785 0.250000
v -0.904509 -0.309017 0.293893
v -0.951057 0.000000 0.309017
v -0.904509 0.309017 0.293893
v -0.769421 0.587785 0.250000
v -0.559017 0.809017 0.181636
v -0.293893 0.951057 0.095492
v -0.250000 -0.951057 0.181636
v -0.475528 -0.809017 0.345492
v -0.654509 -0.587785 0.475528
v -0.769421 -0.309017 0.559017
v -0.809017 0.000000 0.587785
v -0.769421 0.309017 0.559017
v -0.654509 0.587785 0.475528
v -0.475528 0.809017 0.345492
v -0.250000 0.951057 0.181636
v -0.181636 -0.951057 0.250000
v -0.345492 -0.809017 0.475528
v -0.475528 -0.587785 0.654509
v -0.559017 -0.309017 0.769421
v -0.587785 0.000000 0.809017
v -0.559017 0.309017 0.769421
v -0.475528 0.587785 0.654509
v -0.345492 0.809017 0.475528
v -0.181636 0.951057 0.250000
v -0.095492 -0.951057 0.293893
v -0.181636 -0.809017 0.559017
v -0.250000 -0.587785 0.769421
v -0.293893 -0.309017 0.904509
v -0.309017 0.000000 0.951057
v -0.293893 0.309017 0.904509
v -0.250000 0.587785 0.769421
v -0.181636 0.809017 0.559017
v -0.095492 0.951057 0.293893
v 0.000000 -0.951057 0.309017
v 0.000000 -0.809017 0.587785
v 0.000000 -0.587785 0.809017
v 0.000000 -0.309017 0.951057
v 0.000000 0.000000 1.000000
v 0.000000 0.309017 0.951057
v 0.000000 0.587785 0.809017
v 0.000000 0.809017 0.587785
v 0.000000 0.951057 0.309017
v 0.000000 -1.000000 0.000000
v 0.095492 -0.951057 0.293893
v 0.181636 -0.809017 0.559017
v 0.250000 -0.587785 0.769421
v 0.293893 -0.309017 0.904509
v 0.309017 0.000000 0.951057
v 0.293893 0.309017 0.904509
v 0.250000 0.587785 0.769421
v 0.181636 0.809017 0.559017
v 0.095492 0.951057 0.293893
v 0.181636 -0.951057 0.250000
v 0.345492 -0.809017 0.475528
v 0.475528 -0.587785 0.654509
v 0.559017 -0.309017 0.769421
v 0.587785 0.000000 0.809017
v 0.559017 0.309017 0.769421
v 0.475528 0.587785 0.654509
v 0.345492 0.809017 0.475528
v 0.181636 0.951057 0.250000
v 0.250000 -0.951057 0.181636
v 0.475528 -0.809017 0.345492
v 0.654509 -0.587785 0.475528
v 0.769421 -0.309017 0.559017
v 0.809017 0.000000 0.587785
v 0.769421 0.309017 0.559017
v 0.654509 0.587785 0.475528
v 0.475528 0.809017 0.345492
v 0.250000 0.951057 0.181636
v 0.000000 1.000000 0.000000
v 0.293893 -0.951057 0.095492
v 0.559017 -0.809017 0.181636
v 0.769421 -0.587785 0.250000
v 0.904509 -0.309017 0.293893
v 0.951057 0.000000 0.309017
v 0.904509 0.309017 0.293893
v 0.769421 0.587785 0.250000
v 0.559017 0.809017 0.181636
v 0.293893 0.951057 0.095492
v 0.309017 -0.951057 0.000000
v 0.587785 -0.809017 -0.000000
v 0.809017 -0.587785 0.000000
v 0.951057 -0.309017 -0.000000
v 1.000000 0.000000 0.000000
v 0.951057 0.309017 -0.000000
v 0.809017 0.587785 0.000000
v 0.587785 0.809017 -0.000000
v 0.309017 0.951057 0.000000
v 0.293893 -0.951057 -0.095492
v 0.559017 -0.809017 -0.181636
v 0.769421 -0.587785 -0.250000
v 0.904509 -0.309017 -0.293893
v 0.951057 0.000000 -0.309017
v 0.904509 0.309017 -0.293893
v 0.769421 0.587785 -0.250000
v 0.559017 0.809017 -0.181636
v 0.293893 0.951057 -0.095492
v 0.250000 -0.951057 -0.181636
v 0.475528 -0.809017 -0.345492
v 0.654509 -0.587785 -0.475529
v 0.769421 -0.309017 -0.559017
v 0.809017 0.000000 -0.587786
v 0.769421 0.309017 -0.559017
v 0.654509 0.587785 -0.475529
v 0.475528 0.809017 -0.345492
v 0.250000 0.951057 -0.181636
v 0.181636 -0.951057 -0.250000
v 0.345492 -0.809017 -0.475528
v 0.475529 -0.587785 -0.654509
v 0.559017 -0.309017 -0.769421
v 0.587786 0.000000 -0.809018
v 0.559017 0.309017 -0.769421
v 0.475529 0.587785 -0.654509
v 0.345492 0.809017 -0.475528
v 0.181636 0.951057 -0.250000
v 0.095492 -0.951057 -0.293893
v 0.181636 -0.809017 -0.559017
v 0.250000 -0.587785 -0.769421
v 0.293893 -0.309017 -0.904509
v 0.309017 0.000000 -0.951057
v 0.293893 0.309017 -0.904509
v 0.250000 0.587785 -0.769421
v 0.181636 0.809017 -0.559017
v 0.095492 0.951057 -0.293893
v 0.000000 -0.951057 -0.309017
v -0.000000 0.309017 -0.951057
v 0.000000 0.951057 -0.309017
vn -0.0248 0.9874 -0.1564
vn -0.1397 0.4495 -0.8823
vn -0.1397 -0.4495 -0.8823
vn -0.0248 -0.9874 -0.1564
vn -0.1113 0.7027 -0.7027
vn -0.1546 -0.1546 -0.9758
vn -0.0717 -0.8887 -0.4528
vn -0.0717 0.8887 -0.4528
vn -0.1546 0.1546 -0.9758
vn -0.1113 -0.7027 -0.7027
vn -0.4055 0.4495 -0.7959
vn -0.4055 -0.4495 -0.7959
vn -0.0719 -0.9874 -0.1411
vn -0.3230 0.7027 -0.6339
vn -0.4485 -0.1546 -0.8803
vn -0.2081 -0.8887 -0.4085
vn -0.2081 0.8887 -0.4085
vn -0.4485 0.1546 -0.8803
vn -0.3230 -0.7027 -0.6339
vn -0.0719 0.9874 -0.1411
vn -0.5031 -0.7027 -0.5031
vn -0.1120 0.9874 -0.1120
vn -0.6316 0.4495 -0.6316
vn -0.6316 -0.4495 -0.6316
vn -0.1120 -0.9874 -0.1120
vn -0.5031 0.7027 -0.5031
vn -0.6986 -0.1546 -0.6986
vn -0.3242 -0.8887 -0.3242
vn -0.3242 0.8887 -0.3242
vn -0.6986 0.1546 -0.6986
vn -0.4085 0.8887 -0.2081
vn -0.8803 0.1546 -0.4485
vn -0.6339 -0.7027 -0.3230
vn -0.1411 0.9874 -0.0719
vn -0.7959 0.4495 -0.4055
vn -0.7959 -0.4495 -0.4055
vn -0.1411 -0.9874 -0.0719
vn -0.6339 0.7027 -0.3230
vn -0.8803 -0.1546 -0.4485
vn -0.4085 -0.8887 -0.2081
vn -0.9758 -0.1546 -0.1546
vn -0.4528 -0.8887 -0.0717
vn -0.4528 0.8887 -0.0717
vn -0.9758 0.1546 -0.1546
vn -0.7027 -0.7027 -0.1113
vn -0.1564 0.9874 -0.0248
vn -0.8823 0.4495 -0.1397
vn -0.8823 -0.4495 -0.1397
vn -0.1564 -0.9874 -0.0248
vn -0.7027 0.7027 -0.1113
vn -0.1564 -0.9874 0.0248
vn -0.7027 0.7027 0.1113
vn -0.9758 -0.1546 0.1546
vn -0.4528 -0.8887 0.0717
vn -0.4528 0.8887 0.0717
vn -0.9758 0.1546 0.1546
vn -0.7027 -0.7027 0.1113
vn -0.1564 0.9874 0.0248
vn -0.8823 0.4495 0.1397
vn -0.8823 -0.4495 0.1397
vn -0.7959 -0.4495 0.4055
vn -0.1411 -0.9874 0.0719
vn -0.6339 0.7027 0.3230
vn -0.8803 -0.1546 0.4485
vn -0.4085 -0.8887 0.2081
vn -0.4085 0.8887 0.2081
vn -0.8803 0.1546 0.4485
vn -0.6339 -0.7027 0.3230
vn -0.1411 0.9874 0.0719
vn -0.7959 0.4495 0.4055
vn -0.1120 0.9874 0.1120
vn -0.6316 0.4495 0.6316
vn -0.6316 -0.4495 0.6316
vn -0.1120 -0.9874 0.1120
vn -0.5031 0.7027 0.5031
vn -0.6986 -0.1546 0.6986
vn -0.3242 -0.8887 0.3242
vn -0.3242 0.8887 0.3242
vn -0.6986 0.1546 0.6986
vn -0.5031 -0.7027 0.5031
vn -0.4485 0.1546 0.8803
vn -0.3230 -0.7027 0.6339
vn -0.0719 0.9874 0.1411
vn -0.4055 0.4495 0.7959
vn -0.4055 -0.4495 0.7959
vn -0.0719 -0.9874 0.1411
vn -0.3230 0.7027 0.6339
vn -0.4485 -0.1546 0.8803
vn -0.2081 -0.8887 0.4085
vn -0.2081 0.8887 0.4085
vn -0.0717 -0.8887 0.4528
vn -0.0717 0.8887 0.4528
vn -0.1546 0.1546 0.9758
vn -0.1113 -0.7027 0.7027
vn -0.0248 0.9874 0.1564
vn -0.1397 0.4495 0.8823
vn -0.1397 -0.4495 0.8823
vn -0.0248 -0.9874 0.1564
vn -0.1113 0.7027 0.7027
vn -0.1546 -0.1546 0.9758
vn 0.1546 -0.1546 0.9758
vn 0.0717 -0.8887 0.4528
vn 0.0717 0.8887 0.4528
vn 0.1546 0.1546 0.9758
vn 0.1113 -0.7027 0.7027
vn 0.0248 0.9874 0.1564
vn 0.1397 0.4495 0.8823
vn 0.1397 -0.4495 0.8823
vn 0.0248 -0.9874 0.1564
vn 0.1113 0.7027 0.7027
vn 0.0719 -0.9874 0.1411
vn 0.3230 0.7027 0.6339
vn 0.4485 -0.1546 0.8803
vn 0.2081 -0.8887 0.4085
vn 0.2081 0.8887 0.4085
vn 0.4485 0.1546 0.8803
vn 0.3230 -0.7027 0.6339
vn 0.0719 0.9874 0.1411
vn 0.4055 0.4495 0.7959
vn 0.4055 -0.4495 0.7959
vn 0.6316 0.4495 0.6316
vn 0.6316 -0.4495 0.6316
vn 0.1120 -0.9874 0.1120
vn 0.5031 0.7027 0.5031
vn 0.6986 -0.1546 0.6986
vn 0.3242 -0.8887 0.3242
vn 0.3242 0.8887 0.3242
vn 0.6986 0.1546 0.6986
vn 0.5031 -0.7027 0.5031
vn 0.1120 0.9874 0.1120
vn 0.6339 -0.7027 0.3230
vn 0.1411 0.9874 0.0719
vn 0.7959 0.4495 0.4055
vn 0.7959 -0.4495 0.4055
vn 0.1411 -0.9874 0.0719
vn 0.6339 0.7027 0.3230
vn 0.8803 -0.1546 0.4485
vn 0.4085 -0.8887 0.2081
vn 0.4085 0.8887 0.2081
vn 0.8803 0.1546 0.4485
vn 0.9758 0.1546 0.1546
vn 0.7027 -0.7027 0.1113
vn 0.1564 0.9874 0.0248
vn 0.8823 0.4495 0.1397
vn 0.8823 -0.4495 0.1397
vn 0.1564 -0.9874 0.0248
vn 0.7027 0.7027 0.1113
vn 0.9758 -0.1546 0.1546
vn 0.4528 -0.8887 0.0717
vn 0.4528 0.8887 0.0717
vn 0.4528 -0.8887 -0.0717
vn 0.4528 0.8887 -0.0717
vn 0.9758 0.1546 -0.1546
vn 0.7027 -0.7027 -0.1113
vn 0.1564 0.9874 -0.0248
vn 0.8823 0.4495 -0.1397
vn 0.8823 -0.4495 -0.1397
vn 0.1564 -0.9874 -0.0248
vn 0.7027 0.7027 -0.1113
vn 0.9758 -0.1546 -0.1546
vn 0.6339 0.7027 -0.3230
vn 0.8803 -0.1546 -0.4485
vn 0.4085 -0.8887 -0.2081
vn 0.4085 0.8887 -0.2081
vn 0.8803 0.1546 -0.4485
vn 0.6339 -0.7027 -0.3230
vn 0.1411 0.9874 -0.0719
vn 0.7959 0.4495 -0.4055
vn 0.7959 -0.4495 -0.4055
vn 0.1411 -0.9874 -0.0719
vn 0.6316 -0.4495 -0.6316
vn 0.1120 -0.9874 -0.1120
vn 0.5031 0.7027 -0.5031
vn 0.6986 -0.1546 -0.6986
vn 0.3242 -0.8887 -0.3242
vn 0.3242 0.8887 -0.3242
vn 0.6986 0.1546 -0.6986
vn 0.5031 -0.7027 -0.5031
vn 0.1120 0.9874 -0.1120
vn 0.6316 0.4495 -0.6316
vn 0.4055 0.4495 -0.7959
vn 0.4055 -0.4495 -0.7959
vn 0.0719 -0.9874 -0.1411
vn 0.3230 0.7027 -0.6339
vn 0.4485 -0.1546 -0.8803
vn 0.2081 -0.8887 -0.4085
vn 0.2081 0.8887 -0.4085
vn 0.4485 0.1546 -0.8803
vn 0.3230 -0.7027 -0.6339
vn 0.0719 0.9874 -0.1411
vn 0.1113 -0.7027 -0.7027
vn 0.0248 0.9874 -0.1564
vn 0.1397 0.4495 -0.8823
vn 0.1397 -0.4495 -0.8823
vn 0.0248 -0.9874 -0.1564
vn 0.1113 0.7027 -0.7027
vn 0.1546 -0.1546 -0.9758
vn 0.0717 -0.8887 -0.4528
vn 0.0717 0.8887 -0.4528
vn 0.1546 0.1546 -0.9758
s 0
f 125//1 182//1 15//1
f 5//2 181//2 12//2 13//2
f 3//3 2//3 9//3 10//3
f 180//4 97//4 7//4
f 6//5 5//5 13//5 14//5
f 4//6 3//6 10//6 11//6
f 1//7 180//7 7//7 8//7
f 182//8 6//8 14//8 15//8
f 181//9 4//9 11//9 12//9
f 2//10 1//10 8//10 9//10
f 13//11 12//11 21//11 22//11
f 10//12 9//12 18//12 19//12
f 7//13 97//13 16//13
f 14//14 13//14 22//14 23//14
f 11//15 10//15 19//15 20//15
f 8//16 7//16 16//16 17//16
f 15//17 14//17 23//17 24//17
f 12//18 11//18 20//18 21//18
f 9//19 8//19 17//19 18//19
f 125//20 15//20 24//20
f 18//21 17//21 26//21 27//21
f 125//22 24//22 33//22
f 22//23 21//23 30//23 31//23
f 19//24 18//24 27//24 28//24
f 16//25 97//25 25//25
f 23//26 22//26 31//26 32//26
f 20//27 19//27 28//27 29//27
f 17//28 16//28 25//28 26//28
f 24//29 23//29 32//29 33//29
f 21//30 20//30 29//30 30//30
f 33//31 32//31 41//31 42//31
f 30//32 29//32 38//32 39//32
f 27//33 26//33 35//33 36//33
f 125//34 33//34 42//34
f 31//35 30//35 39//35 40//35
f 28//36 27//36 36//36 37//36
f 25//37 97//37 34//37
f 32//38 31//38 40//38 41//38
f 29//39 28//39 37//39 38//39
f 26//40 25//40 34//40 35//40
f 38//41 37//41 46//41 47//41
f 35//42 34//42 43//42 44//42
f 42//43 41//43 50//43 51//43
f 39//44 38//44 47//44 48//44
f 36//45 35//45 44//45 45//45
f 125//46 42//46 51//46
f 40//47 39//47 48//47 49//47
f 37//48 36//48 45//48 46//48
f 34//49 97//49 43//49
f 41//50 40//50 49//50 50//50
f 43//51 97//51 52//51
f 50//52 49//52 58//52 59//52
f 47//53 46//53 55//53 56//53
f 44//54 43//54 52//54 53//54
f 51//55 50//55 59//55 60//55
f 48//56 47//56 56//56 57//56
f 45//57 44//57 53//57 54//57
f 125//58 51//58 60//58
f 49//59 48//59 57//59 58//59
f 46//60 45//60 54//60 55//60
f 55//61 54//61 63//61 64//61
f 52//62 97//62 61//62
f 59//63 58//63 67//63 68//63
f 56//64 55//64 64//64 65//64
f 53//65 52//65 61//65 62//65
f 60//66 59//66 68//66 69//66
f 57//67 56//67 65//67 66//67
f 54//68 53//68 62//68 63//68
f 125//69 60//69 69//69
f 58//70 57//70 66//70 67//70
f 125//71 69//71 78//71
f 67//72 66//72 75//72 76//72
f 64//73 63//73 72//73 73//73
f 61//74 97//74 70//74
f 68//75 67//75 76//75 77//75
f 65//76 64//76 73//76 74//76
f 62//77 61//77 70//77 71//77
f 69//78 68//78 77//78 78//78
f 66//79 65//79 74//79 75//79
f 63//80 62//80 71//80 72//80
f 75//81 74//81 83//81 84//81
f 72//82 71//82 80//82 81//82
f 125//83 78//83 87//83
f 76//84 75//84 84//84 85//84
f 73//85 72//85 81//85 82//85
f 70//86 97//86 79//86
f 77//87 76//87 85//87 86//87
f 74//88 73//88 82//88 83//88
f 71//89 70//89 79//89 80//89
f 78//90 77//90 86//90 87//90
f 80//91 79//91 88//91 89//91
f 87//92 86//92 95//92 96//92
f 84//93 83//93 92//93 93//93
f 81//94 80//94 89//94 90//94
f 125//95 87//95 96//95
f 85//96 84//96 93//96 94//96
f 82//97 81//97 90//97 91//97
f 79//98 97//98 88//98
f 86//99 85//99 94//99 95//99
f 83//100 82//100 91//100 92//100
f 92//101 91//101 101//101 102//101
f 89//102 88//102 98//102 99//102
f 96//103 95//103 105//103 106//103
f 93//104 92//104 102//104 103//104
f 90//105 89//105 99//105 100//105
f 125//106 96//106 106//106
f 94//107 93//107 103//107 104//107
f 91//108 90//108 100//108 101//108
f 88//109 97//109 98//109
f 95//110 94//110 104//110 105//110
f 98//111 97//111 107//111
f 105//112 104//112 113//112 114//112
f 102//113 101//113 110//113 111//113
f 99//114 98//114 107//114 108//114
f 106//115 105//115 114//115 115//115
f 103//116 102//116 111//116 112//116
f 100//117 99//117 108//117 109//117
f 125//118 106//118 115//118
f 104//119 103//119 112//119 113//119
f 101//120 100//120 109//120 110//120
f 113//121 112//121 121//121 122//121
f 110//122 109//122 118//122 119//122
f 107//123 97//123 116//123
f 114//124 113//124 122//124 123//124
f 111//125 110//125 119//125 120//125
f 108//126 107//126 116//126 117//126
f 115//127 114//127 123//127 124//127
f 112//128 111//128 120//128 121//128
f 109//129 108//129 117//129 118//129
f 125//130 115//130 124//130
f 118//131 117//131 127//131 128//131
f 125//132 124//132 134//132
f 122//133 121//133 131//133 132//133
f 119//134 118//134 128//134 129//134
f 116//135 97//135 126//135
f 123//136 122//136 132//136 133//136
f 120//137 119//137 129//137 130//137
f 117//138 116//138 126//138 127//138
f 124//139 123//139 133//139 134//139
f 121//140 120//140 130//140 131//140
f 131//141 130//141 139//141 140//141
f 128//142 127//142 136//142 137//142
f 125//143 134//143 143//143
f 132//144 131//144 140//144 141//144
f 129//145 128//145 137//145 138//145
f 126//146 97//146 135//146
f 133//147 132//147 141//147 142//147
f 130//148 129//148 138//148 139//148
f 127//149 126//149 135//149 136//149
f 134//150 133//150 142//150 143//150
f 136//151 135//151 144//151 145//151
f 143//152 142//152 151//152 152//152
f 140//153 139//153 148//153 149//153
f 137//154 136//154 145//154 146//154
f 125//155 143//155 152//155
f 141//156 140//156 149//156 150//156
f 138//157 137//157 146//157 147//157
f 135//158 97//158 144//158
f 142//159 141//159 150//159 151//159
f 139//160 138//160 147//160 148//160
f 151//161 150//161 159//161 160//161
f 148//162 147//162 156//162 157//162
f 145//163 144//163 153//163 154//163
f 152//164 151//164 160//164 161//164
f 149//165 148//165 157//165 158//165
f 146//166 145//166 154//166 155//166
f 125//167 152//167 161//167
f 150//168 149//168 158//168 159//168
f 147//169 146//169 155//169 156//169
f 144//170 97//170 153//170
f 156//171 155//171 164//171 165//171
f 153//172 97//172 162//172
f 160//173 159//173 168//173 169//173
f 157//174 156//174 165//174 166//174
f 154//175 153//175 162//175 163//175
f 161//176 160//176 169//176 170//176
f 158//177 157//177 166//177 167//177
f 155//178 154//178 163//178 164//178
f 125//179 161//179 170//179
f 159//180 158//180 167//180 168//180
f 168//181 167//181 176//181 177//181
f 165//182 164//182 173//182 174//182
f 162//183 97//183 171//183
f 169//184 168//184 177//184 178//184
f 166//185 165//185 174//185 175//185
f 163//186 162//186 171//186 172//186
f 170//187 169//187 178//187 179//187
f 167//188 166//188 175//188 176//188
f 164//189 163//189 172//189 173//189
f 125//190 170//190 179//190
f 173//191 172//191 1//191 2//191
f 125//192 179//192 182//192
f 177//193 176//193 181//193 5//193
f 174//194 173//194 2//194 3//194
f 171//195 97//195 180//195
f 178//196 177//196 5//196 6//196
f 175//197 174//197 3//197 4//197
f 172//198 171//198 180//198 1//198
f 179//199 178//199 6//199 182//199
f 176//200 175//200 4//200 181//200
